<?xml version="1.0" encoding="UTF-8" standalone="no"?>
<!-- Created with Inkscape (http://www.inkscape.org/) -->

<svg
   version="1.1"
   id="svg2"
   width="433.66666"
   height="341.86331"
   viewBox="0 0 433.66665 341.86331"
   xmlns="http://www.w3.org/2000/svg"
   xmlns:svg="http://www.w3.org/2000/svg">
  <defs
     id="defs6">
    <clipPath
       clipPathUnits="userSpaceOnUse"
       id="clipPath16">
      <path
         d="M 0,300.473 H 368.504 V 0 H 0 Z"
         id="path14" />
    </clipPath>
  </defs>
  <g
     id="g8"
     transform="matrix(1.3333333,0,0,-1.3333333,-28.835466,372.28399)">
    <g
       id="g10">
      <g
         id="g12"
         clip-path="url(#clipPath16)">
        <g
           id="g18"
           transform="translate(340.7666,44.9805)">
          <path
             d="m 0,0 h -5.324 l -7.131,-9.401 V 0 h -4.51 v -21.791 h 4.51 v 6.413 l 2.024,2.552 5.449,-8.965 h 5.294 l -7.63,12.547 z m -204.739,-15.537 v 0.064 c 0,3.392 -2.053,5.012 -5.851,6.508 -3.395,1.401 -4.143,1.993 -4.143,3.239 v 0.031 c 0,1.122 0.965,1.899 2.523,1.899 1.683,0 3.272,-0.902 4.64,-2.024 l 2.519,3.424 c -1.989,1.805 -4.479,2.675 -7.034,2.675 -4.203,0 -7.129,-2.582 -7.129,-6.378 v -0.062 c 0,-3.738 2.397,-5.202 6.256,-6.697 3.115,-1.182 3.739,-1.867 3.739,-2.958 v -0.031 c 0,-1.276 -1.059,-2.15 -2.803,-2.15 -2.182,0 -3.956,1.184 -5.418,2.46 l -2.676,-3.33 c 2.396,-2.238 5.289,-3.205 8.062,-3.205 4.235,0 7.315,2.489 7.315,6.535 M -239.56,0 h -14.038 v -21.791 h 14.161 v 4.075 h -9.682 v 4.861 h 8.407 v 4.075 h -8.407 v 4.705 h 9.559 z m -62.988,-13.232 V 0 h -4.479 v -13.451 c 0,-3.019 -1.464,-4.514 -3.801,-4.514 -2.335,0 -3.801,1.526 -3.801,4.609 V 0 h -4.511 v -13.327 c 0,-5.882 3.237,-8.808 8.25,-8.808 5.044,0 8.342,2.894 8.342,8.903 M -295.576,0 h -4.138 v -21.791 h 4.417 v 13.167 l 8.627,-13.167 h 3.858 V 0 h -4.416 v -12.701 z m 20.583,0 h -4.512 v -21.791 h 4.512 z m 6.269,0 h -4.887 l 7.346,-21.915 h 4.17 L -254.748,0 h -4.762 l -4.606,-15.004 z m 39.979,0 h -8.186 v -21.791 h 4.51 v 7.161 h 2.836 l 4.018,-7.161 h 5.164 l -4.636,8.096 c 2.395,1.056 4.044,3.139 4.044,6.442 v 0.125 c 0,2.15 -0.653,3.86 -1.834,5.044 -1.37,1.368 -3.393,2.084 -5.916,2.084 m -0.437,-4.075 c 2.306,0 3.646,-1.092 3.646,-3.273 v -0.03 c 0,-1.961 -1.246,-3.272 -3.552,-3.272 h -3.333 v 6.575 z M -198.54,0 h -4.512 v -21.791 h 4.512 z m 16.992,0 h -15.438 v -4.17 h 5.48 v -17.621 h 4.479 V -4.17 h 5.479 z m 5.456,0 h -5.106 l 7.097,-13.199 v -8.592 h 4.512 v 8.653 L -162.49,0 h -4.982 l -4.326,-8.562 z m 19.203,-10.739 v -0.374 c 0,-6.511 4.044,-11.052 9.836,-11.052 5.762,0 9.869,4.603 9.869,11.113 v 0.374 c 0,6.508 -4.045,11.052 -9.837,11.052 -5.761,0 -9.868,-4.574 -9.868,-11.113 m 4.635,-0.033 c 0,4.299 2.15,6.976 5.201,6.976 3.023,0 5.202,-2.709 5.202,-7.006 v -0.219 c 0,-4.297 -2.15,-6.976 -5.17,-6.976 -3.021,0 -5.233,2.711 -5.233,7.008 z M -121.324,0 h -14.038 v -21.791 h 4.511 v 8.624 h 8.374 v 4.137 h -8.374 v 4.892 h 9.527 z m 13.288,0 h -4.511 v -21.791 h 4.511 v 8.873 h 7.164 v -8.873 h 4.512 V 0 h -4.512 v -8.748 h -7.164 z m 28.941,0 h -14.037 v -21.791 h 14.163 v 4.075 h -9.682 v 4.861 h 8.406 v 4.075 h -8.406 v 4.705 h 9.556 z m 7.141,0 h -4.512 v -21.791 h 13.32 v 4.138 h -8.808 z m 12.183,-15.537 -2.676,-3.33 c 2.396,-2.238 5.29,-3.205 8.062,-3.205 4.237,0 7.316,2.489 7.316,6.535 v 0.064 c 0,3.392 -2.054,5.012 -5.85,6.508 -3.397,1.401 -4.144,1.993 -4.144,3.239 v 0.031 c 0,1.122 0.965,1.899 2.523,1.899 1.682,0 3.27,-0.902 4.639,-2.024 l 2.521,3.424 c -1.992,1.805 -4.48,2.675 -7.036,2.675 -4.204,0 -7.128,-2.582 -7.128,-6.378 v -0.062 c 0,-3.738 2.396,-5.202 6.256,-6.697 3.117,-1.182 3.738,-1.867 3.738,-2.958 v -0.031 c 0,-1.276 -1.058,-2.15 -2.803,-2.15 -2.181,0 -3.956,1.184 -5.418,2.46 M -40.357,0 h -4.512 v -21.791 h 4.512 z m 7.398,0 h -4.139 v -21.791 h 4.418 v 13.167 l 8.627,-13.167 h 3.859 V 0 h -4.418 V -12.701 Z M 6.11,0 H 1.599 V -21.791 H 6.11 Z"
             style="fill:#231f20;fill-opacity:1;fill-rule:nonzero;stroke:none"
             id="path20" />
        </g>
        <path
           d="m 173.622,66.614 h 21.26 v 21.261 h -21.26 z"
           style="fill:#231f20;fill-opacity:1;fill-rule:nonzero;stroke:none"
           id="path22" />
        <path
           d="m 173.622,257.953 h 21.26 v 21.26 h -21.26 z"
           style="fill:#231f20;fill-opacity:1;fill-rule:nonzero;stroke:none"
           id="path24" />
        <g
           id="g26"
           transform="translate(297.6377,138.04)">
          <path
             d="m 0,0 c -8.183,17.999 -26.558,20.624 -38.058,28.124 -5.505,3.59 -7.735,10.797 -8.61,16.823 -5.419,-0.565 -14.441,-0.645 -18.751,10.31 -3.389,8.617 -1.984,22.893 -13.325,34.992 -10.314,11 -23,14.625 -34.642,13.808 14.267,-9.539 8.642,-23.92 -1.718,-23.92 -14.42,0 -18.454,17.367 -39.561,17.367 -4.828,0 -9.082,-1.507 -11.736,-3.261 11.82,-1.493 14.65,-11.186 18.344,-19.959 2.937,-6.972 8.187,-11.035 15.874,-13.16 -1.387,-0.799 -4.706,-1.781 -8.996,-1.781 -9.322,0 -15.816,4.906 -22.492,11.784 -5.875,6.053 -12.428,11.789 -23.416,11.789 -5.404,0 -9.543,-1.712 -10.976,-2.677 6.031,-0.95 14.941,-4.547 14.941,-10.926 0,-5.456 -6.035,-7.543 -10.979,-2.322 -5.504,5.814 -13.232,10.21 -22.076,10.21 -4.369,0 -8.738,-1.392 -10.594,-3.201 10.481,-1.208 16.688,-7.937 23.177,-22.944 3.662,-8.472 8.878,-16.479 22.011,-16.628 5.978,-0.073 14.463,2.77 19.445,-2.011 4.715,-4.526 3.131,-10.461 5.289,-15.273 2.713,-6.048 8.338,-9.166 19.338,-9.74 -9.125,-7.635 -30.937,-3.053 -38.365,4.748 0.976,-19.532 16.383,-37.05 46.967,-28.813 5.315,1.432 9.106,0.621 11.152,-4.757 2.809,-7.385 9.46,-8.609 15.746,-7.829 14.375,1.78 22.907,-1.114 31.181,-10.997 1.808,16.351 -9.884,25.962 -17.228,30.556 -6.995,4.375 -7.678,8.924 -7.765,12.448 5.062,-5.791 11.66,-8.245 18.524,-9.211 11.866,-1.67 20.366,-4.98 24.866,-11.342 1.314,17.98 -17.561,22.042 -19.875,29.605 5.939,-3.875 10.316,-5.283 16.5,-4.813 8.25,0.625 18.282,7.102 25.681,-5.575 C -20.683,7.562 -8.308,5.374 0,0 m -102.756,24.244 h -21.26 v 21.26 h 21.26 z"
             style="fill:#231f20;fill-opacity:1;fill-rule:nonzero;stroke:none"
             id="path28" />
        </g>
      </g>
    </g>
  </g>
</svg>
